<?xml version="1.0" encoding="UTF-8"?>
<svg id="Layer_1" xmlns="http://www.w3.org/2000/svg" viewBox="0 0 80 80">
  <path d="M73.28,31.08c-.85-3.18,2.98-8.3,1.37-11.09-1.63-2.82-8-2.06-10.29-4.35-2.29-2.29-1.53-8.66-4.35-10.29-2.78-1.61-7.91,2.22-11.09,1.37C45.85,5.9,43.33,0,40,0s-5.85,5.9-8.92,6.72c-3.18.85-8.3-2.98-11.09-1.37-2.82,1.63-2.06,8-4.35,10.29-2.29,2.29-8.66,1.53-10.29,4.35-1.61,2.78,2.22,7.91,1.37,11.09-.82,3.07-6.72,5.59-6.72,8.92s5.9,5.85,6.72,8.92c.85,3.18-2.98,8.3-1.37,11.09,1.63,2.82,8,2.06,10.29,4.35,2.29,2.29,1.53,8.66,4.35,10.29,2.78,1.61,7.91-2.22,11.09-1.37,3.07.82,5.59,6.72,8.92,6.72s5.85-5.9,8.92-6.72c3.18-.85,8.3,2.98,11.09,1.37,2.82-1.63,2.06-8,4.35-10.29,2.29-2.29,8.66-1.53,10.29-4.35,1.61-2.78-2.22-7.91-1.37-11.09.82-3.07,6.72-5.59,6.72-8.92s-5.9-5.85-6.72-8.92ZM40,68.19c-15.57,0-28.19-12.62-28.19-28.19s12.62-28.19,28.19-28.19,28.19,12.62,28.19,28.19-12.62,28.19-28.19,28.19Z" fill="#00a2f9"/>
  <polygon points="40 20.13 45.58 32.92 59.47 34.27 49.02 43.53 52.03 57.16 40 50.09 27.97 57.16 30.98 43.53 20.53 34.27 34.42 32.92 40 20.13" fill="#00a2f9"/>
</svg>