<?xml version="1.0" encoding="UTF-8"?>
<svg xmlns="http://www.w3.org/2000/svg" version="1.1" viewBox="0 0 216 216">
  <defs>
    <style>
      .cls-1 {
        fill: #fff;
      }
    </style>
  </defs>
  <!-- Generator: Adobe Illustrator 28.6.0, SVG Export Plug-In . SVG Version: 1.2.0 Build 709)  -->
  <g>
    <g id="Layer_1">
      <g>
        <path class="cls-1" d="M187.5,62.6c-4.7,9.5-9.4,19.1-14.1,28.7-.6,1.2-1.4,2.3-2.1,3.5-.3-8.7.4-17,1.1-25.3,1.4-16.5,2.8-33.1,4-49.6.1-1.5-.7-3.7-1.8-4.4-6.1-3.8-13.4-2.2-17.1,3.9-1.8,3.1-3.3,6.6-3.8,10.1-1.5,11.2-2.5,22.4-3.7,33.6-.2,1.5-.4,3-.6,4.5-2.9-8-4.7-16-6.8-24-3.2-12.3-5.7-25-12.7-36-2.9-4.6-4.5-5.4-9.1-2.7-2.6,1.5-5.2,4.1-6.3,6.8-1.3,3.4-1.9,7.5-1.3,11.1,1.3,8.7,3.4,17.3,5.3,25.9,1.7,7.8,3.4,15.6,5.1,23.7-13.7,1.1-26.8,2.2-39.8,3.4-1.5.1-3.5.8-4.2,1.8-5.7,8.9-11.3,18-16.8,27-1.5,2.5-.5,5.8,2.3,6.8,9.1,3.4,16.8-.5,25-12.2,9.6,5,11.3,5.2,22.5,3.2.8,2.2,1.4,4.6,2.6,6.6,5.7,9.5,4.2,17.5-3.5,25.5-5.2,5.4-4.7,6-12.1,3.6-2.3-.7-4.8-1.1-6.9-2.3-1.8-1-3.8-2.5-4.5-4.2-4.7-12-14-16.6-25.7-12.5-1.6.6-2.5,2.4-1.8,4,1.1,2.7,2.2,5.4,2.9,8.3,3.7,15,11.6,27.1,23.6,36.9,0,0,19.8,15.1,27.2,38.1,1.2,3.7,4.6,6.3,8.5,6.3h42c4.7,0,8.5-3.6,8.9-8.2,1-13.4,1.8-26.7,2.9-40.1,1.1-13.1.5-26.5,7.2-38.6,3.6-6.5,6-13.6,9-20.5,6.7-15.8,13.5-31.6,20.2-47.2-9.8-8.4-19.9-6.4-25.4,4.7Z"/>
        <path class="cls-1" d="M45.2,111.6c0-3.2-2.6-5.8-5.8-5.8H9c-3.2,0-5.8,2.6-5.8,5.8s2.6,5.8,5.8,5.8h30.3c3.2,0,5.8-2.6,5.8-5.8Z"/>
        <path class="cls-1" d="M40.9,130.2l-26.3,15.2c-2.8,1.6-3.7,5.2-2.1,8,1.6,2.8,5.2,3.7,8,2.1l26.3-15.2c2.8-1.6,3.7-5.2,2.1-8-1.6-2.8-5.2-3.7-8-2.1Z"/>
        <path class="cls-1" d="M46.7,82.9l-26.3-15.2c-2.8-1.6-6.4-.7-8,2.1-1.6,2.8-.7,6.4,2.1,8l26.3,15.2c2.8,1.6,6.4.7,8-2.1,1.6-2.8.7-6.4-2.1-8Z"/>
      </g>
    </g>
  </g>
</svg>